<?xml version="1.0" encoding="utf-8"?>
<!-- Generator: Adobe Illustrator 24.0.1, SVG Export Plug-In . SVG Version: 6.00 Build 0)  -->
<svg version="1.1" id="Layer_1" xmlns="http://www.w3.org/2000/svg" xmlns:xlink="http://www.w3.org/1999/xlink" x="0px" y="0px"
	 viewBox="0 0 914 1280" style="enable-background:new 0 0 914 1280;" xml:space="preserve">
<style type="text/css">
	.st0{fill:#f3f4f6;}
</style>
<g transform="translate(0.000000,1280.000000) scale(0.100000,-0.100000)">
	<path class="st0" d="M4305,12681c-22-4-50-13-63-19c-12-7-28-12-35-10c-16,4-209-188-231-230c-9-18-21-30-26-27c-6,3-7,0-4-8
		s0-18-7-23c-8-5-10-3-5,7c4,8-1,4-11-9s-38-47-63-76c-54-64-93-133-138-246c-34-84-34-86-28-195c4-60,7-114,8-120c0-5-2-55-5-110
		c-6-99,2-84,19,38c4,26,11,47,17,47c5,0,6-10,3-22c-19-66-18-138,5-283c13-85,27-151,32-148c10,6-2,161-14,183
		c-12,26-22,218-10,200c6-8,12-55,13-105c1-87,2-88,8-30c6,55,7,57,10,20c2-22,4-58,5-80c9-251,37-406,109-598c20-53,34-102,30-109
		c-5-7-3-8,6-3c10,6,12,4,7-8c-8-21,2-49,14-41c5,3,6-3,2-12c-5-13-3-15,7-9c9,5,11,4,6-4c-4-6,6-36,22-66c21-39,26-57,18-63
		c-30-23-91-42-191-61c-195-38-270-73-350-164c-89-102-150-247-221-527c-20-80-66-221-104-315c-37-93-98-253-135-355
		c-81-220-110-288-192-440c-34-63-71-144-83-180s-57-241-100-456c-85-421-113-540-165-707c-31-97-44-121-127-238
		c-167-234-150-193-147-354c2-131,1-144-24-209c-15-37-27-72-27-77s17,0,37,11l37,20l12-43c6-23,15-60,20-82c10-43,26-50,34-14
		c9,37,24,32,49-16c13-25,29-44,34-42c22,7,17,106-9,195c-37,122-36,176,6,238c40,58,168,184,188,184c8,0,27-8,44-17
		c24-15,28-23,24-43c-3-14-9-55-12-91c-6-63-6-66,26-102c18-20,38-37,44-37c13,0,46,128,46,178c0,15,9,59,20,97s20,98,20,133
		c0,37-8,86-20,119c-25,71-25,91,0,184c30,115,98,277,231,547c144,294,211,451,239,564c35,139,48,171,195,503
		c136,306,245,570,245,594c0,32,19,0,59-97c24-59,77-187,118-286c40-98,73-193,73-210s29-116,65-219s65-202,64-220
		c-1-62,14-222,22-232c19-24-26-78-123-146c-161-115-206-161-469-487c-115-143-215-331-277-522c-81-248-109-421-122-760
		c-6-146-15-335-20-420c-6-85-13-250-17-366l-6-211l129-17c71-9,201-18,289-19c134-1,166,2,199,16c21,10,39,17,41,15
		c1-2,13-50,25-108c13-58,51-206,86-330c96-335,99-359,97-606c-1-166-5-218-17-248c-17-42-52-92-165-236c-190-243-254-374-323-654
		c-100-409-227-822-294-956l-45-90h-63c-86,0-159-24-207-67c-52-47-68-79-88-181c-15-72-23-91-60-133c-23-27-83-82-134-122
		c-108-86-222-210-213-232c12-31,43-12,155,98c119,115,211,188,211,166c0-34-48-166-95-261c-60-121-112-200-178-274
		c-60-67-70-92-56-152c25-115,126-243,228-291c49-22,69-26,161-26h105l37,70c41,77,45,99,24,150c-22,53-4,151,40,217
		c19,28,33,59,32,68c-2,10,18,34,52,61c30,24,65,64,77,87c11,23,38,61,58,83c41,46,74,112,75,148c0,13,15,44,34,70
		c45,62,66,105,66,136c0,65,201,402,438,734l96,134l52-204c28-112,77-287,108-389c75-251,106-383,106-457c0-62,0-63-37-82
		c-42-21-138-117-170-171c-12-19-27-54-34-78c-11-39-10-48,12-100c23-56,24-63,23-322c0-198-5-296-18-388c-10-68-17-125-15-127
		c2-1,15-5,29-7c24-3,25-1,47,137c13,77,30,205,38,285c8,79,19,148,24,153s14-13,22-43c7-28,19-56,26-61c9-8,10-16,2-30
		c-11-21,7-149,21-149c10,0,15-122,11-276l-2-121l31-26c48-41,89-47,336-47c270,0,265-2,282,95c24,130,24,145,1,181
		c-11,19-41,46-65,60c-41,24-44,29-44,68c0,23-9,58-20,79c-24,44-26,109-5,141c8,12,18,42,21,67c5,35,2,49-14,69c-17,21-18,27-6,45
		c22,33,22,172,1,212c-9,18-17,51-17,75c-1,24-7,61-15,83s-17,78-21,125c-3,47-16,139-29,205c-58,287-79,711-72,1408
		c3,281,10,546,17,617c12,122,14,126,55,185c69,99,162,266,183,330c11,33,39,121,62,195s75,218,115,320s101,273,136,380
		c34,107,62,195,63,196s44-5,96-12c133-18,280-18,280,0c0,10,36,14,171,18c93,3,173,8,176,12c10,10-76,771-131,1151
		c-13,94-30,215-36,270c-7,55-18,125-26,155s-17,111-20,180s-12,145-19,170c-8,25-19,97-25,160c-14,148-37,242-110,468
		c-33,100-60,189-60,196c0,8,6,27,14,43c8,15,26,68,41,118c14,49,29,93,34,98c4,4,38-39,76-95c38-57,121-173,185-258
		c273-364,497-710,575-885c31-71,92-159,166-242c33-38,74-92,91-121c31-54,82-112,99-112c16,0,10-52-8-66c-12-9-13-13-5-14
		c21,0,149,68,173,92c24,26,26,32-12-65c-13-33-16-53-10-65c6-11,6-24,0-35c-16-28,7-20,33,12c12,16,39,51,58,78l35,50l17-29
		c10-15,22-28,27-28s7-9,4-20s-1-20,5-20s14,17,17,38c3,20,10,59,15,85c6,27,10,83,10,126v77l-54,68c-37,46-56,80-60,107
		c-4,22-16,50-29,63c-12,12-84,55-161,95c-145,77-199,117-246,187c-31,44-231,466-282,593c-16,42-64,170-105,286
		c-80,223-118,306-207,452c-58,95-109,213-121,276c-6,29,0,53,29,121c66,153,60,246-31,455c-5,11,2,13,35,8c42-5,68,7,35,17
		c-10,3,0,3,22,2c22-2,51-7,64-11c19-6,22-5,16,5s0,12,28,7l37-6l-16,25c-9,13-20,24-25,24s-23,9-41,21c-25,16-27,19-9,14
		c16-5,21-4,17,4c-4,6-3,11,3,11c22,0-3,32-40,51c-22,11-39,22-39,24c0,10,76-27,110-54c52-41,68-48,40-17c-23,26-40,104-19,91
		c5-4,9-13,9-21s5-14,10-14c6,0,10,3,10,6c0,11-23,50-44,72c-20,22-20,23-1,16c11-4,28-14,38-22c34-30,19,18-24,71
		c-41,52-38,78,5,38c35-33,43-25,10,10c-35,38-91,79-79,58c8-12,6-12-8-1c-9,8-31,39-49,70c-18,30-52,87-75,126
		c-71,120-102,194-108,256c-1,19-8,48-14,63c-14,35-14,58-1,37c7-12,10-8,10,15c0,17-5,37-11,45c-8,12-9,10-4-7c3-13,4-23,0-23
		c-12,0-26,58-30,125c-2,38-6,86-9,105l-6,35l14-36c8-20,20-61,27-92c7-32,15-55,17-52c9,9,33-57,27-75c-3-9-1-28,5-41
		c9-21,9-19,5,11l-6,35l20-40c24-46,21-34-34,158c-22,76-42,171-59,283c-8,55-31,144-51,199c-19,55-33,89-31,76c7-37-8-12-39,64
		c-16,39-42,97-58,130s-33,73-38,88c-4,15-45,86-91,158c-101,159-183,310-198,364c-16,56-131,294-170,350c-27,39-29,45-11,36
		c11-6,26-21,32-32s13-18,16-15c3,2-4,17-14,33c-36,52-40,60-17,43c10-8-14,23-55,68c-93,104-110,117-244,182c-104,51-112,53-200,55
		C4386,12686,4327,12684,4305,12681z M4803,12515c49-50,111-125,106-128c-2-1-50,44-105,100c-60,60-89,96-71,85
		C4750,12563,4781,12537,4803,12515z M4899,12326c-3-3-11,5-18,17c-13,21-12,21,5,5C4896,12338,4902,12328,4899,12326z M4999,12160
		c27-52,51-106,55-120c3-14-9,7-28,45c-34,69-47,84-25,28c28-69,58-158,54-161c-4-4-105,200-105,212c0,4,5,4,11,1c5-4-6,25-25,64
		c-20,39-36,74-36,78C4901,12327,4956,12246,4999,12160z M5225,11449c9-17,15-33,13-35c-3-2-12,12-21,31
		C5196,11488,5204,11492,5225,11449z M5397,11173c8-21,33-103,54-183s56-208,78-285s41-153,41-170c0-16,9-59,20-95
		c22-68,32-120,24-120c-10,0-52,103-47,116c3,8,0,14-6,14s-11,7-11,15s-11,52-24,97c-13,46-43,171-65,278c-37,172-73,317-88,357
		c-3,7-2,13,1,13C5378,11210,5388,11193,5397,11173z M3857,11113c-3-10-5-2-5,17s2,27,5,18C3859,11138,3859,11122,3857,11113z
		 M3902,11032c9-32,20-67,23-77c6-17,4-17-14,3c-29,34-54,132-33,132C3882,11090,3893,11064,3902,11032z M5377,10840
		c-4-16-32,99-41,165c-3,22,6-3,19-55C5369,10898,5379,10848,5377,10840z M5477,10978c-3-8-6-5-6,6c-1,11,2,17,5,13
		C5479,10994,5480,10985,5477,10978z M5487,10938c-3-8-6-5-6,6c-1,11,2,17,5,13C5489,10954,5490,10945,5487,10938z M3935,10910
		c10-11,37-68,61-126c24-59,47-110,50-113c4-3,4,3,0,14c-19,49-14,45,14-11c25-51,29-66,21-88c-6-14-14-26-19-26
		c-10,0-93,181-134,293C3900,10931,3902,10947,3935,10910z M5650,10208c15-21,17-28,6-19c-16,13-41,51-33,51
		C5625,10240,5637,10225,5650,10208z M6691,6821c56-38,82-82,72-121c-5-18-18-39-30-47c-20-14-23-12-50,27c-44,66-83,134-83,147
		c0,6,10,14,23,16C6651,6848,6649,6849,6691,6821z M3223,1605c-3-9-8-14-10-11c-3,3-2,9,2,15C3224,1625,3230,1622,3223,1605z
		 M3130,1405c-35-36-50-40-29-8c9,16,38,36,58,42C3162,1439,3149,1424,3130,1405z M3010,1240c-40-35-55-38-40-9c7,11,18,18,25,15
		c7-2,19,2,25,10c7,8,15,14,19,14C3042,1269,3029,1256,3010,1240z M2860,828c0-19-2-20-10-8c-13,19-13,30,0,30
		C2856,850,2860,840,2860,828z"/>
	<path class="st0" d="M4051,10655c0-5,6-21,14-35s14-20,14-15c0,6-6,21-14,35S4051,10661,4051,10655z"/>
	<path class="st0" d="M3701,11434c0-11,3-14,6-6c3,7,2,16-1,19C3703,11451,3700,11445,3701,11434z"/>
	<path class="st0" d="M5456,11397c3-10,9-15,12-12s0,11-7,18C5451,11412,5450,11411,5456,11397z"/>
	<path class="st0" d="M3693,11305c0-38,2-53,4-32c2,20,2,52,0,70C3695,11360,3693,11344,3693,11305z"/>
	<path class="st0" d="M5471,11365c0-5,8-26,19-45s19-30,19-25c0,6-8,26-19,45S5471,11371,5471,11365z"/>
	<path class="st0" d="M3771,11214c0-11,3-14,6-6c3,7,2,16-1,19C3773,11231,3770,11225,3771,11214z"/>
	<path class="st0" d="M3702,11200c0-14,2-19,5-12c2,6,2,18,0,25C3704,11219,3702,11214,3702,11200z"/>
	<path class="st0" d="M5671,10385c1-19,18-51,18-35c0,8-4,22-9,30S5671,10391,5671,10385z"/>
	<path class="st0" d="M5660,10321c0-6,4-13,10-16s7,1,4,9C5667,10332,5660,10335,5660,10321z"/>
	<path class="st0" d="M5731,10290c14-31,19-36,19-24c0,6-7,19-16,30C5720,10314,5720,10314,5731,10290z"/>
	<path class="st0" d="M5730,10227c0-15,33-72,56-97c13-14,33-36,45-50l21-25l-17,30c-9,17-26,38-36,47c-11,9-30,36-44,60
		S5730,10231,5730,10227z"/>
</g>
</svg>
