<?xml version="1.0" encoding="utf-8"?>
<!-- Generator: Adobe Illustrator 24.0.1, SVG Export Plug-In . SVG Version: 6.00 Build 0)  -->
<svg version="1.1" id="Layer_1" xmlns="http://www.w3.org/2000/svg" xmlns:xlink="http://www.w3.org/1999/xlink" x="0px" y="0px"
	 viewBox="0 0 446.3 1267.5" style="enable-background:new 0 0 446.3 1267.5;" xml:space="preserve">
<style type="text/css">
	.st0{fill:#f3f4f6;}
	.st1{fill:#f3f4f6;stroke:#f3f4f6;stroke-width:9.380000e-02;}
</style>
<path class="st0" d="M187.6,48.8c7.2-3.2,14-8.2,22.2-8.8c3.2-0.5,6.4,0.6,9.3,2c-1.4,3.5-6.1,2.3-9,3.2c0.5,2.4,2.9,1.4,4.6,1.2
	c6.6-1.3,13.4-2.8,20.1-1.5c5.8,1.1,11.6,2.6,17.1,5c1.4,0.5,2.3,1.6,3.2,2.7c-2,1.5-4.2,2.7-6.3,4.1c3.6,3.5,7.4,6.8,11.5,9.7
	c1.9,1.6,4.3,3,5,5.5c-2.6,2.4-6.6,0.4-9.8,1.1c1.1,4.1,3.8,7.6,4.3,11.8c1.4,10.3,2.6,20.8,2,31.2c-0.2,3.2-1.5,6.2-2.5,9.3
	c1.3,0.8,2.6,1.7,3.9,2.6c-1.5,6.4-5,12.3-5,19c-0.1,7.6,1.3,15.1,0,22.6c-1.6,6.9-5.5,12.9-9.1,18.8c-0.1,6.3-1.2,13.6,3.4,18.8
	c4.3,4.6,9.9,7.9,15.5,10.6c20.3,9.5,41.1,18,61.4,27.5c3.1,1.7,6.7,1.5,9.8,3.2c2.9,1.7,3.2,5.4,4,8.3c1,0.7,2.7,0.9,3,2.4
	c0.8,5.3-0.6,11,1.4,16.1c1,2.5,4.1,5,2.3,7.9c-0.2,0.5-0.6,1.4-0.8,1.8c2.6,5.8,4.6,11.8,5.4,18.1c0.4,4.6,4,8.1,4,12.8
	c1.3,21.4,8.9,41.6,16.5,61.5c4,10.6,8.4,21.1,12.2,31.9c1.5,3.8,0.3,8,1.2,12c1.9,4.5,7.5,5.9,9.4,10.4c2.6,5.3-0.8,11,0.1,16.4
	c1.6,12.3,3.7,24.5,5.3,36.9c0.5,3.9-2,7.6-1.3,11.5c1.5,8.2,3.8,16.3,4.9,24.6c0.4,3-1,5.7-1.9,8.5c-1.1,3-1.2,6.3-1.4,9.5
	c-0.2,7.4-0.7,14.7-1,22.1c-0.2,7,0.6,14.1-1.1,21c-1.4,6.2-3.3,12.5-2.4,18.9c1.2,8.8,1.8,18.3-2.1,26.6c-2.2,4.4-2.6,9.5-5.2,13.8
	c-2.6,4.5-6,9.1-11.2,10.8c-7.9,2.5-16,5.1-24.3,5.4c-3.6-1.4-5.3-5.2-7.6-7.9c-1.5-1.5-0.5-3.4,0.6-4.7c5-6.4,10.8-12.3,14.8-19.4
	c2.6-5.9,2-12.7,0.7-18.8c-0.4-2.8-3.9-3.8-6.2-2.7c-2.5,5.1-2.9,11-5.2,16.2c-1.3,2.3-4.2,3.1-6,4.9c0.3,2.6,1.5,5.1,1.8,7.7
	c-1.1,2.4-4,2.7-6,3.9c-4.2,2.1-9.3,4.3-10.8,9.2c-1.1,10,1.1,20,1.2,30c0.8,12.6-2.1,25-4.2,37.3c-5.9,32.6-13.1,64.9-19.7,97.3
	c-4.2,18.5-12.8,35.5-22,52c-4.9,8.4-10.7,16.2-15.2,24.9c-1.9,3.9-1.7,8.3-2,12.5c-1,27.4-1.5,54.8,0.8,82.2
	c1.2,13.3,3.2,26.6,4.7,39.9c1.5,11.9,1.7,24,1.9,36c0.4,19.6,1.1,39.2,2,58.8c2.8,7-2.5,14.6,0.8,21.6c3.2,5.5,9.7,7.6,13.8,12.3
	c3.4,4.3,4.4,9.9,6,15c0.5,1.1,0,2.3-0.2,3.5c-1.4-0.2-3.3,0-4-1.5c-1.8-3.8-2.6-8.2-5.2-11.6c-2.1-2.4-4.8-4.1-7.5-5.6
	c3.2,9.2,9.7,16.7,16.8,23.2c5.9,6.5,13.8,10.9,19,18c5.4,6.9,8.5,15.3,13.4,22.6c0.8,1.2,1,2.7,1.1,4.2c-10.7,3-21.7,4.6-32.6,6.6
	c-11.6,1.6-23.5,4.4-35.1,1.3c-14.2-3.7-26.4-12.8-36.3-23.3c-2.5-2.1-1.5-5.6-1.4-8.4c-0.2,0-0.5,0-0.6,0c-0.2,3.4-0.2,7.1-2.1,10
	c-1.9,0.8-3.2-1.1-4.3-2.4c-2.6-3.5-4.9-7.4-6.3-11.5c-1.7-4.8-0.1-9.9,0.7-14.6c-0.6-0.6-1.7-1.8-2.3-2.4c0.3-1.9,2.2-2.8,3.3-4.2
	c0-2.8-2.1-5.8-0.5-8.5c1.7-3.8,5.2-7.7,3.5-12.1c-5.3-16-12.7-31.3-15.9-48c-2.6-16.4-3.5-33-5.2-49.5c-0.8-6.8-1-13.8-3.8-20.1
	c-5.5,6.4-7.7,14.8-11,22.3c-2.4,5.2-4,10.9-7.7,15.3c-5.2,4.4-12.4,0.6-18.3,2.6c0.8,3.8,3,7,4.7,10.4c3.7,7.8,8.5,15,12.5,22.6
	c2.4,4.6,3.4,10,7.1,13.8c5.3,6.4,13.2,11.5,14.8,20.2c1.4,4.3,0.4,10.3-4.3,12c-9.9,0.6-19.9-0.7-29.8-1.6
	c-11.1-1.4-22.3-3-32.6-7.6c-9.5-4.7-11.9-16.2-13.4-25.7c-1.6-8.3-0.4-17.5-5.1-24.8c-3.1-5.2-6.6-10.3-11-14.5
	c-1.3,2.2-2.3,4.8-4.7,6.2c-6.8-6-12-13.5-17.2-20.8c-3-4.9-7.3-9.9-6.5-16c0.6-7.4,5.5-13.5,6.9-20.7c3.6-4.7,8-8.6,12.1-12.8
	c2.6-2.3,5.1-6.4,9.1-4c5.1-5.7,9.2-12.1,13.6-18.4c4.9-7.2,9.2-14.8,12.2-22.9c3.6-9.9,8.8-19,13.7-28.2
	c5.8-10.4,11.6-20.9,17.7-31.1c4.8-8,12.4-14.1,16.3-22.7c3.1-6.7,2.4-14.2,2.4-21.3c-0.8-26.5-2.8-53-5-79.4
	c-2.3-24.5-3.9-49.1-7.8-73.4c-2.5-18-6.1-35.9-9.2-53.8c-5.6,0.6-11.2,0-16.7,0.7c-3.2,0.3-5.5,3.6-8.8,3c-1.4-0.8-1.2-2.6-1.3-4
	c0.1-10.6,1.6-21.2,0.9-31.8c-0.7-8-6.8-13.6-11-20c-19.7-27.6-40.1-54.7-59.9-82.2c-4.7-7-10.4-13.6-12.3-22.1
	c-4.8-19.6-7.9-39.9-6.9-60.2c0.9-19.1,3-38.1,5.3-57.1c0.7-4.9,1.1-9.9,2.2-14.8c1.3-5.7,4.8-10.5,7-15.8c1.7-3.7-1.1-7.4-1.2-11.1
	c-0.4-6.1,6.5-9.8,6-16c-0.4-6.8,4.8-11.9,6.5-18.1c-0.1-2.4-2.1-4.5-2-6.9c0.5-5.1,2.9-9.8,3.5-14.9c0.9-6.8,1.3-14.5,6.6-19.6
	c5.8-5.4,14.5-3.9,21-7.9c14.2-8.1,27.5-17.7,40.9-27c10.5-7.2,20-16.3,26.7-27.2c1.8-6.5,9.1-10.1,9-17.3
	c-0.2-7.9-0.4-16.1-2.8-23.8c-3.1-2-7.3,1.1-10.4-1.3c-4.3-3.1-7.2-7.7-9.7-12.3c-3.2-6-3.2-13-2.4-19.6c0.4-2.1,0.5-4.5,2.1-6.2
	c1.5-1,3.5-0.5,5.2-0.7c-2.9-10.2-8.2-20.3-6.8-31.3c2.3-10,9.7-17.7,16.3-25.2C170.1,59.7,178.2,53.2,187.6,48.8 M206.2,42.5
	c0.5,0.6,1,1.2,1.6,1.8c2.3-1.4,5-1.5,7.6-1.8C212.3,42,209.2,41.7,206.2,42.5 M125,435.6c-1.5,4-3.3,7.8-4,12
	c-0.8,4.4-0.2,8.9-0.6,13.3c-0.1,2.6-2.8,3.8-3.5,6.1c0.5,2.7,2.7,4.9,3,7.7c-0.3,2.2-1.8,4-2.1,6.1c1.6,3.9,4,7.4,6,11
	c4.3,6.8,8.3,13.9,13.5,20.1c0.5-4,0.4-8,1.3-11.9c1.6-7.6,3.8-15.3,2.5-23.1c-1.4-8.4-4.2-16.4-6.7-24.5
	c-1.8-5.4-3.4-10.9-6.4-15.8C126.8,436.7,125.8,436.3,125,435.6 M315.2,447.1c1.9,2.1,1.8,5.1,2.6,7.7c3.3,14,6.5,28.1,9.5,42.2
	c1.5,7.5,1.7,15.2,2.3,22.9c1.8,17.4,4,34.8,6.1,52.2c1.4,11.3,3.1,22.8,6.9,33.5c1.6-5.9,2.3-12.2,5.3-17.6
	c2.2-4.2,5.5-8.1,5.4-13.1c0.6-9.8-6-18.3-6.1-28c0-6.4-2.6-12.3-4.3-18.3c-3.4-12.3-7.6-24.3-10.4-36.7c-1.2-3.5,3.6-5.5,2.9-8.8
	c-3.7-7-10.3-12.2-13-19.7c-1.2-3,0.7-6.5-0.8-9.4c-1.7-4.1-3.8-8-5.9-11.8C315.4,443.8,315.3,445.4,315.2,447.1 M285.2,1147.7
	c2.4,2.8,6.3,4.1,8.4,7.3c2.8,3.6,3.2,8.5,6,12c-1.7-5.3-2.9-11.1-6.4-15.5C291,1149.5,288.5,1146.6,285.2,1147.7z"/>
<path class="st1" d="M206.2,42.5c3-0.8,6.1-0.5,9.1,0c-2.6,0.3-5.3,0.4-7.6,1.8C207.2,43.7,206.6,43.1,206.2,42.5z"/>
</svg>
